<?xml version="1.0" standalone="no"?>
<!DOCTYPE svg PUBLIC "-//W3C//DTD SVG 20010904//EN"
 "http://www.w3.org/TR/2001/REC-SVG-20010904/DTD/svg10.dtd">
<svg version="1.0" xmlns="http://www.w3.org/2000/svg"
 width="340.000000pt" height="340.000000pt" viewBox="0 0 340.000000 340.000000"
 preserveAspectRatio="xMidYMid meet">
<metadata>
Created by potrace 1.14, written by Peter Selinger 2001-2017
</metadata>
<g transform="translate(0.000000,340.000000) scale(0.100000,-0.100000)"
fill="#000000" stroke="none">
<path d="M1690 3382 c0 -5 -8 -17 -18 -28 -30 -33 -202 -280 -202 -290 0 -3
-10 -20 -23 -37 -32 -47 -42 -63 -89 -157 -24 -47 -45 -87 -48 -90 -12 -10
-59 -130 -52 -130 4 0 2 -4 -5 -8 -6 -4 -13 -16 -15 -27 -1 -11 -6 -22 -9 -25
-6 -6 -26 -73 -39 -135 -29 -140 -29 -279 2 -415 5 -25 12 -58 15 -75 3 -16 8
-32 11 -35 4 -3 9 -16 10 -30 2 -14 8 -29 13 -35 5 -5 9 -16 9 -25 0 -14 104
-231 132 -275 62 -96 103 -154 142 -198 21 -25 23 -32 -14 68 -28 72 -56 181
-65 245 -3 19 -7 46 -11 60 -3 14 -7 93 -9 175 -2 120 2 165 17 225 21 87 58
180 70 180 5 0 7 4 4 8 -7 12 74 123 130 179 31 30 50 42 62 38 22 -6 97 -84
141 -145 28 -39 83 -145 83 -160 0 -3 5 -14 11 -25 6 -11 12 -24 13 -30 0 -5
2 -12 3 -15 2 -3 4 -14 6 -25 1 -11 6 -40 10 -65 13 -81 8 -274 -10 -370 -4
-19 -8 -44 -10 -55 -4 -33 -45 -188 -54 -210 -15 -34 -24 -59 -27 -80 l-4 -20
12 20 c6 11 14 22 18 25 3 3 17 21 30 40 13 19 31 40 40 47 8 7 12 13 8 13 -6
0 64 115 89 145 4 6 10 19 11 30 2 11 8 22 13 23 5 2 9 9 9 16 0 7 11 35 25
62 14 27 25 52 25 56 0 4 5 19 12 35 13 33 12 28 22 73 5 19 13 41 18 48 6 6
8 12 5 12 -3 0 -1 17 4 38 21 86 29 261 16 367 -7 54 -37 168 -48 180 -5 5 -9
17 -9 27 0 10 -4 27 -10 38 -5 11 -14 29 -20 40 -5 11 -10 25 -10 32 0 6 -6
19 -13 27 -7 9 -22 36 -32 61 -25 57 -152 274 -210 357 -25 35 -45 68 -45 73
0 4 -3 10 -7 12 -5 2 -28 30 -53 63 -62 83 -80 100 -80 77z"/>
<path d="M1659 2153 c-77 -85 -110 -169 -123 -315 -2 -26 -2 -49 1 -51 2 -3 6
-40 8 -84 2 -43 7 -89 10 -103 3 -14 8 -36 11 -50 3 -14 7 -33 10 -42 3 -10 7
-28 9 -41 13 -66 102 -250 119 -244 12 4 87 139 81 146 -3 2 1 13 7 25 7 11
13 24 14 29 1 4 2 8 4 10 1 1 3 9 5 17 1 8 8 34 14 58 7 24 14 60 17 80 3 20
7 55 11 77 7 53 7 220 -1 271 -7 51 -41 128 -75 174 -27 36 -72 80 -82 80 -3
0 -21 -17 -40 -37z"/>
<path d="M1010 1282 c-36 -10 -86 -31 -112 -46 -46 -27 -158 -126 -142 -126 4
0 1 -6 -8 -12 -14 -12 -51 -78 -77 -138 -22 -53 -37 -149 -34 -221 5 -114 7
-129 17 -129 5 0 6 -3 3 -6 -3 -4 -2 -15 4 -26 6 -11 12 -29 14 -40 3 -12 8
-24 12 -27 5 -3 9 -12 11 -20 10 -48 132 -176 201 -210 120 -61 261 -60 401 0
l52 22 -54 17 c-123 38 -187 99 -215 205 -14 53 -3 173 17 185 7 4 10 10 8 14
-7 14 52 72 94 93 94 47 186 32 261 -43 26 -26 44 -50 41 -55 -3 -5 0 -9 5 -9
6 0 10 -3 9 -7 -1 -5 4 -28 11 -53 18 -61 14 -188 -6 -255 -4 -11 -7 -27 -9
-35 -3 -26 -44 -143 -53 -154 -5 -6 -9 -13 -9 -16 -1 -10 -22 -66 -34 -85 -26
-45 -37 -69 -32 -74 10 -10 138 128 191 207 55 83 113 207 113 243 0 31 18 22
25 -13 15 -67 92 -213 152 -289 22 -28 121 -129 146 -148 12 -9 2 18 -26 76
-24 50 -47 101 -52 114 -4 13 -8 26 -10 29 -10 23 -16 43 -31 95 -41 144 -40
282 4 370 66 136 243 169 359 67 79 -70 93 -239 28 -342 -13 -21 -40 -50 -59
-65 -34 -26 -129 -64 -163 -66 -30 -1 86 -49 153 -63 160 -34 321 21 424 143
41 50 100 158 100 185 0 9 3 16 8 16 16 0 23 238 9 295 -5 17 -9 35 -10 40 -2
6 -15 36 -30 69 -15 32 -27 60 -27 62 0 2 -8 14 -17 26 -128 159 -255 222
-443 217 -241 -6 -425 -122 -501 -314 -7 -16 -13 -34 -13 -39 -2 -16 -26 -19
-26 -3 0 20 -40 108 -56 125 -8 7 -14 17 -14 21 0 15 -76 85 -135 123 -52 34
-109 57 -186 74 -13 3 -69 7 -124 10 -77 3 -115 0 -165 -14z"/>
</g>
</svg>
