<svg width="25" height="25" viewBox="0 0 25 25" fill="none" xmlns="http://www.w3.org/2000/svg">
<path fill-rule="evenodd" clip-rule="evenodd" d="M1.56257 12.5C1.56257 12.2928 1.64488 12.0941 1.79139 11.9476C1.9379 11.8011 2.13662 11.7188 2.34382 11.7188H20.7704L15.8532 6.80314C15.7806 6.7305 15.7229 6.64426 15.6836 6.54936C15.6443 6.45445 15.6241 6.35273 15.6241 6.25001C15.6241 6.14729 15.6443 6.04557 15.6836 5.95066C15.7229 5.85576 15.7806 5.76952 15.8532 5.69689C15.9258 5.62425 16.0121 5.56663 16.107 5.52732C16.2019 5.48801 16.3036 5.46777 16.4063 5.46777C16.509 5.46777 16.6108 5.48801 16.7057 5.52732C16.8006 5.56663 16.8868 5.62425 16.9594 5.69689L23.2094 11.9469C23.2822 12.0195 23.3399 12.1057 23.3793 12.2006C23.4187 12.2955 23.439 12.3972 23.439 12.5C23.439 12.6028 23.4187 12.7045 23.3793 12.7994C23.3399 12.8944 23.2822 12.9806 23.2094 13.0531L16.9594 19.3031C16.8868 19.3758 16.8006 19.4334 16.7057 19.4727C16.6108 19.512 16.509 19.5322 16.4063 19.5322C16.3036 19.5322 16.2019 19.512 16.107 19.4727C16.0121 19.4334 15.9258 19.3758 15.8532 19.3031C15.7806 19.2305 15.7229 19.1443 15.6836 19.0494C15.6443 18.9545 15.6241 18.8527 15.6241 18.75C15.6241 18.6473 15.6443 18.5456 15.6836 18.4507C15.7229 18.3558 15.7806 18.2695 15.8532 18.1969L20.7704 13.2813H2.34382C2.13662 13.2813 1.9379 13.1989 1.79139 13.0524C1.64488 12.9059 1.56257 12.7072 1.56257 12.5Z" fill="white"/>
</svg>
