<svg width="25" height="26" viewBox="0 0 25 26" fill="none" xmlns="http://www.w3.org/2000/svg">
<path d="M12.3987 6.74414C11.7806 6.74414 11.1764 6.92681 10.6625 7.26905C10.1486 7.61129 9.74808 8.09772 9.51156 8.66685C9.27504 9.23597 9.21315 9.86221 9.33373 10.4664C9.45431 11.0706 9.75193 11.6255 10.189 12.0611C10.626 12.4967 11.1828 12.7934 11.789 12.9135C12.3952 13.0337 13.0235 12.972 13.5946 12.7363C14.1656 12.5006 14.6536 12.1013 14.997 11.5891C15.3404 11.077 15.5237 10.4748 15.5237 9.85876C15.5227 9.033 15.1932 8.24133 14.6073 7.65743C14.0215 7.07353 13.2272 6.74508 12.3987 6.74414ZM12.3987 11.4161C12.0896 11.4161 11.7876 11.3247 11.5306 11.1536C11.2737 10.9825 11.0734 10.7393 10.9551 10.4547C10.8369 10.1702 10.8059 9.85703 10.8662 9.55494C10.9265 9.25285 11.0753 8.97537 11.2938 8.75757C11.5123 8.53978 11.7908 8.39146 12.0939 8.33137C12.3969 8.27128 12.7111 8.30212 12.9966 8.41999C13.2821 8.53786 13.5262 8.73747 13.6979 8.99356C13.8695 9.24966 13.9612 9.55075 13.9612 9.85876C13.9607 10.2716 13.7959 10.6675 13.503 10.9594C13.2101 11.2514 12.8129 11.4156 12.3987 11.4161Z" fill="white"/>
<path d="M18.4036 3.86894C16.9189 2.38952 14.9369 1.51068 12.8403 1.40205C10.7437 1.29341 8.68099 1.96268 7.05034 3.28068C5.4197 4.59868 4.33669 6.47199 4.01035 8.53904C3.68401 10.6061 4.13746 12.7204 5.28319 14.4738L11.1869 23.5068C11.3182 23.7078 11.4979 23.8729 11.7095 23.9873C11.9211 24.1016 12.158 24.1614 12.3986 24.1614C12.6393 24.1614 12.8762 24.1016 13.0878 23.9873C13.2994 23.8729 13.4791 23.7078 13.6104 23.5068L19.5143 14.4738C20.5774 12.8472 21.0472 10.9059 20.845 8.97514C20.6428 7.04439 19.7808 5.24161 18.4036 3.86894ZM18.2051 13.6237L12.3987 22.5077L6.59218 13.6237C4.81483 10.9043 5.19604 7.26509 7.49857 4.97011C8.14206 4.32874 8.90599 3.81998 9.74675 3.47288C10.5875 3.12578 11.4886 2.94712 12.3987 2.94712C13.3087 2.94712 14.2098 3.12578 15.0506 3.47288C15.8914 3.81998 16.6553 4.32874 17.2988 4.97011C19.6013 7.26509 19.9825 10.9043 18.2051 13.6237Z" fill="white"/>
</svg>
