<svg width="21" height="21" viewBox="0 0 21 21" fill="none" xmlns="http://www.w3.org/2000/svg">
<path d="M18.3125 20.4481H18.1797C2.82812 19.5683 0.648432 6.65817 0.343745 2.71818C0.319194 2.41184 0.355533 2.10368 0.450678 1.81137C0.545824 1.51905 0.697906 1.24832 0.898212 1.01468C1.09852 0.781042 1.34311 0.589094 1.61797 0.449833C1.89283 0.310572 2.19257 0.226735 2.49999 0.203126H6.80468C7.11762 0.202824 7.42343 0.296182 7.68252 0.471109C7.94161 0.646035 8.14202 0.894469 8.25781 1.18423L9.44531 4.0964C9.55964 4.37947 9.58802 4.68979 9.52691 4.98881C9.46579 5.28782 9.31788 5.56235 9.10156 5.77829L7.43749 7.4524C7.69743 8.92464 8.40483 10.2818 9.46398 11.3402C10.5231 12.3986 11.8829 13.1072 13.3594 13.3702L15.0547 11.6961C15.2746 11.4828 15.5526 11.3389 15.8541 11.2821C16.1556 11.2253 16.4672 11.2583 16.75 11.3768L19.6953 12.5526C19.9816 12.6716 20.226 12.8729 20.3971 13.1309C20.5682 13.3888 20.6584 13.6917 20.6562 14.0009V18.1122C20.6562 18.7317 20.4093 19.3259 19.9698 19.764C19.5302 20.202 18.9341 20.4481 18.3125 20.4481ZM2.68749 1.76043C2.48029 1.76043 2.28158 1.84247 2.13507 1.9885C1.98856 2.13452 1.90624 2.33258 1.90624 2.53909V2.60138C2.26562 7.21101 4.57031 18.1122 18.2656 18.8908C18.3683 18.8972 18.4711 18.8832 18.5684 18.8498C18.6656 18.8164 18.7552 18.7642 18.8322 18.6962C18.9091 18.6282 18.9718 18.5458 19.0167 18.4536C19.0616 18.3613 19.0878 18.2612 19.0937 18.1589V14.0009L16.1484 12.8251L13.9062 15.0443L13.5312 14.9976C6.73437 14.1488 5.81249 7.37453 5.81249 7.30445L5.76562 6.9307L7.98437 4.69596L6.81249 1.76043H2.68749Z" fill="white"/>
</svg>
